<svg width="24" height="24" viewBox="0 0 24 24" fill="none" xmlns="http://www.w3.org/2000/svg">
<path fill-rule="evenodd" clip-rule="evenodd" d="M23.7459 6.91318C23.9577 7.18877 24.037 7.51948 23.9841 7.90531L22.978 13.9133C22.9427 14.2257 22.8059 14.4828 22.5676 14.6849C22.3293 14.887 22.0602 14.9881 21.7601 14.9881H7.09189L6.80064 16.6967H20.7805C21.1159 16.6967 21.4069 16.8207 21.6542 17.0688C21.9013 17.3168 22.0248 17.6246 22.0248 17.992C22.0248 18.3595 21.9013 18.6672 21.6542 18.9152C21.4069 19.1633 21.1159 19.2873 20.7805 19.2873H5.31793C4.94726 19.2873 4.62953 19.1311 4.36477 18.8189C4.11765 18.5065 4.02057 18.1482 4.07352 17.7441L4.73544 13.9961L3.72932 3.46837L0.869815 2.53136C0.534441 2.42112 0.291736 2.20979 0.1417 1.8975C-0.00833532 1.58512 -0.039225 1.25445 0.0490313 0.90537C0.154939 0.556287 0.362341 0.303661 0.671238 0.147493C0.980136 -0.00867604 1.29345 -0.0408284 1.61117 0.0510355L5.26498 1.26364C5.49445 1.33713 5.6842 1.47493 5.83423 1.67703C5.98427 1.87913 6.07694 2.10883 6.11224 2.36605L6.32406 4.46055L22.8986 6.38969C23.2693 6.44467 23.5517 6.61921 23.7459 6.91318ZM7.19784 20.0038C7.72738 20.0038 8.17748 20.1967 8.54816 20.5827C8.91884 20.9684 9.10417 21.437 9.10417 21.9882C9.10417 22.5392 8.91884 23.0125 8.54816 23.4075C8.17748 23.8025 7.72738 24 7.19784 24C6.6683 24 6.21819 23.8025 5.84752 23.4075C5.47684 23.0125 5.2915 22.5394 5.2915 21.9882C5.2915 21.437 5.47684 20.9684 5.84752 20.5827C6.21815 20.1967 6.66826 20.0038 7.19784 20.0038ZM19.8538 20.5827C19.4831 20.1967 19.0329 20.0038 18.5034 20.0038C17.9739 20.0038 17.5238 20.1967 17.1532 20.5827C16.7824 20.9684 16.597 21.437 16.597 21.9882C16.597 22.5394 16.7825 23.0125 17.1532 23.4075C17.5237 23.8025 17.9739 24 18.5034 24C19.0329 24 19.4831 23.8025 19.8538 23.4075C20.2244 23.0125 20.4098 22.5392 20.4098 21.9882C20.4098 21.437 20.2243 20.9684 19.8538 20.5827Z" fill="#19202C"/>
</svg>
