<svg width="16" height="14" viewBox="0 0 16 14" fill="none" xmlns="http://www.w3.org/2000/svg">
<path opacity="0.5" fill-rule="evenodd" clip-rule="evenodd" d="M15.92 2.05401C15.3376 2.31415 14.7104 2.49005 14.0535 2.56967C14.7244 2.16418 15.2397 1.52353 15.482 0.759766C14.8539 1.13471 14.1588 1.40689 13.4179 1.55316C12.8252 0.917149 11.981 0.519989 11.0463 0.519989C9.25151 0.519989 7.79592 1.98457 7.79592 3.7917C7.79592 4.04906 7.82574 4.2981 7.88072 4.53788C5.18015 4.40179 2.78616 3.09829 1.18334 1.11897C0.902847 1.60223 0.743496 2.16418 0.743496 2.76408C0.743496 3.89909 1.31753 4.90078 2.18883 5.4868C1.6558 5.47014 1.15445 5.32294 0.717404 5.07761C0.717404 5.09149 0.717404 5.10538 0.717404 5.11927C0.717404 6.7042 1.83658 8.02622 3.32386 8.3271C3.05082 8.40208 2.76473 8.44189 2.46746 8.44189C2.25872 8.44189 2.05464 8.42153 1.85615 8.38264C2.26991 9.68244 3.47016 10.6286 4.8922 10.6554C3.77954 11.5321 2.378 12.0552 0.855321 12.0552C0.593465 12.0552 0.334404 12.0404 0.0800018 12.0098C1.51788 12.9384 3.22601 13.48 5.0618 13.48C11.0388 13.48 14.3079 8.49466 14.3079 4.17127C14.3079 4.0287 14.3041 3.8889 14.2985 3.74819C14.9331 3.28715 15.4848 2.71039 15.92 2.05493V2.05401V2.05401Z" fill="white"/>
</svg>
