<svg width="20" height="15" viewBox="0 0 20 15" fill="none" xmlns="http://www.w3.org/2000/svg">
<path fill-rule="evenodd" clip-rule="evenodd" d="M17.7893 8.82335H1.30165C0.582273 8.82335 0 8.23041 0 7.49982C0 6.76924 0.582273 6.17629 1.30165 6.17629H17.7893C18.5078 6.17629 19.0909 6.76924 19.0909 7.49982C19.0909 8.23041 18.5078 8.82335 17.7893 8.82335ZM17.7893 2.64706H1.30165C0.582273 2.64706 0 2.05412 0 1.32353C0 0.592941 0.582273 0 1.30165 0H17.7893C18.5078 0 19.0909 0.592941 19.0909 1.32353C19.0909 2.05412 18.5078 2.64706 17.7893 2.64706ZM1.30165 12.3529H17.7893C18.5078 12.3529 19.0909 12.9458 19.0909 13.6764C19.0909 14.407 18.5078 14.9999 17.7893 14.9999H1.30165C0.582273 14.9999 0 14.407 0 13.6764C0 12.9458 0.582273 12.3529 1.30165 12.3529Z" fill="white"/>
</svg>
