<svg width="16" height="14" viewBox="0 0 16 14" fill="none" xmlns="http://www.w3.org/2000/svg">
<path opacity="0.5" fill-rule="evenodd" clip-rule="evenodd" d="M15.92 2.05401C15.3375 2.31415 14.7104 2.49005 14.0534 2.56967C14.7244 2.16418 15.2397 1.52354 15.482 0.759766C14.8539 1.13471 14.1587 1.40689 13.4179 1.55316C12.8252 0.917149 11.9809 0.519989 11.0463 0.519989C9.25146 0.519989 7.79588 1.98457 7.79588 3.7917C7.79588 4.04906 7.8257 4.2981 7.88068 4.53788C5.1801 4.40179 2.78612 3.09829 1.1833 1.11897C0.902801 1.60223 0.743451 2.16418 0.743451 2.76408C0.743451 3.89909 1.31749 4.90078 2.18879 5.4868C1.65576 5.47014 1.15441 5.32294 0.717358 5.07761C0.717358 5.09149 0.717358 5.10538 0.717358 5.11927C0.717358 6.7042 1.83654 8.02622 3.32381 8.3271C3.05077 8.40208 2.76469 8.44189 2.46742 8.44189C2.25868 8.44189 2.0546 8.42153 1.85611 8.38264C2.26986 9.68244 3.47011 10.6286 4.89216 10.6554C3.7795 11.5321 2.37796 12.0552 0.855276 12.0552C0.593419 12.0552 0.334358 12.0404 0.0799561 12.0098C1.51784 12.9384 3.22596 13.48 5.06176 13.48C11.0388 13.48 14.3078 8.49466 14.3078 4.17127C14.3078 4.0287 14.3041 3.8889 14.2985 3.74819C14.9331 3.28715 15.4848 2.71039 15.92 2.05493V2.05401Z" fill="#717171"/>
</svg>
