<svg width="14" height="15" viewBox="0 0 14 15" fill="none" xmlns="http://www.w3.org/2000/svg">
<path fill-rule="evenodd" clip-rule="evenodd" d="M13.6751 4.8026C13.7971 4.96131 13.8427 5.15177 13.8123 5.37396L13.2329 8.83389C13.2126 9.01382 13.1337 9.1619 12.9965 9.27829C12.8593 9.39467 12.7043 9.45287 12.5315 9.45287H4.08417L3.91644 10.4369H11.9673C12.1605 10.4369 12.3281 10.5083 12.4705 10.6511C12.6128 10.794 12.6839 10.9712 12.6839 11.1828C12.6839 11.3944 12.6128 11.5717 12.4705 11.7145C12.3281 11.8573 12.1605 11.9288 11.9673 11.9288H3.06256C2.84909 11.9288 2.66612 11.8388 2.51364 11.659C2.37132 11.4791 2.31542 11.2728 2.34591 11.0401L2.72711 8.88158L2.14769 2.81876L0.50092 2.27914C0.307781 2.21566 0.168009 2.09395 0.0816043 1.91411C-0.00480025 1.73421 -0.0225894 1.54378 0.0282368 1.34275C0.0892282 1.14171 0.20867 0.996226 0.386561 0.90629C0.564453 0.816354 0.744886 0.797837 0.92786 0.850741L3.03206 1.54907C3.16421 1.59139 3.27349 1.67075 3.35989 1.78714C3.4463 1.90353 3.49967 2.03581 3.52 2.18394L3.64198 3.39015L13.1871 4.50113C13.4006 4.53279 13.5633 4.63331 13.6751 4.8026ZM4.14518 12.3415C4.45014 12.3415 4.70936 12.4526 4.92283 12.6748C5.1363 12.8969 5.24303 13.1668 5.24303 13.4842C5.24303 13.8016 5.1363 14.0741 4.92283 14.3016C4.70936 14.5291 4.45014 14.6428 4.14518 14.6428C3.84023 14.6428 3.58101 14.5291 3.36754 14.3016C3.15407 14.0742 3.04734 13.8017 3.04734 13.4842C3.04734 13.1668 3.15407 12.897 3.36754 12.6748C3.58099 12.4526 3.8402 12.3415 4.14518 12.3415ZM11.4337 12.6748C11.2202 12.4526 10.9609 12.3415 10.656 12.3415C10.351 12.3415 10.0918 12.4526 9.87838 12.6748C9.66486 12.897 9.5581 13.1668 9.5581 13.4842C9.5581 13.8017 9.66491 14.0742 9.87838 14.3016C10.0918 14.5291 10.351 14.6428 10.656 14.6428C10.9609 14.6428 11.2202 14.5291 11.4337 14.3016C11.6471 14.0741 11.7539 13.8016 11.7539 13.4842C11.7539 13.1668 11.647 12.8969 11.4337 12.6748Z" fill="white"/>
</svg>
