<svg width="17" height="17" viewBox="0 0 17 17" fill="none" xmlns="http://www.w3.org/2000/svg">
<path fill-rule="evenodd" clip-rule="evenodd" d="M16.82 4.89683C16.97 5.09205 17.0262 5.3263 16.9888 5.59959L16.2761 9.85522C16.2511 10.0765 16.1542 10.2587 15.9854 10.4018C15.8166 10.545 15.626 10.6165 15.4134 10.6165H5.02342L4.81712 11.8268H14.7195C14.9571 11.8268 15.1632 11.9147 15.3384 12.0904C15.5134 12.2661 15.6009 12.4841 15.6009 12.7443C15.6009 13.0046 15.5134 13.2226 15.3384 13.3983C15.1632 13.574 14.9571 13.6618 14.7195 13.6618H3.76687C3.50431 13.6618 3.27925 13.5512 3.09171 13.3301C2.91667 13.1088 2.8479 12.855 2.88541 12.5687L3.35427 9.91388L2.6416 2.45676L0.616119 1.79305C0.378562 1.71496 0.206646 1.56527 0.100371 1.34406C-0.00590418 1.12279 -0.0277844 0.888571 0.0347305 0.641304C0.109748 0.394037 0.256658 0.215093 0.475461 0.104474C0.694263 -0.00614553 0.916191 -0.0289201 1.14124 0.0361501L3.72936 0.895078C3.8919 0.947134 4.02631 1.04474 4.13258 1.18789C4.23886 1.33105 4.3045 1.49376 4.3295 1.67595L4.47954 3.15955L16.2198 4.52603C16.4824 4.56498 16.6824 4.68861 16.82 4.89683ZM5.09847 14.1694C5.47356 14.1694 5.79239 14.3061 6.05495 14.5794C6.31751 14.8526 6.44879 15.1846 6.44879 15.575C6.44879 15.9653 6.31751 16.3005 6.05495 16.5804C5.79239 16.8602 5.47356 17.0001 5.09847 17.0001C4.72338 17.0001 4.40455 16.8602 4.14199 16.5804C3.87943 16.3006 3.74815 15.9654 3.74815 15.575C3.74815 15.1846 3.87943 14.8527 4.14199 14.5794C4.40452 14.3061 4.72335 14.1694 5.09847 14.1694ZM14.0631 14.5794C13.8005 14.3061 13.4816 14.1694 13.1066 14.1694C12.7315 14.1694 12.4127 14.3061 12.1501 14.5794C11.8875 14.8527 11.7562 15.1846 11.7562 15.575C11.7562 15.9654 11.8876 16.3006 12.1501 16.5804C12.4126 16.8602 12.7315 17.0001 13.1066 17.0001C13.4816 17.0001 13.8005 16.8602 14.0631 16.5804C14.3256 16.3005 14.4569 15.9653 14.4569 15.575C14.4569 15.1846 14.3255 14.8526 14.0631 14.5794Z" fill="white"/>
</svg>
