<svg width="20" height="20" viewBox="0 0 20 20" fill="none" xmlns="http://www.w3.org/2000/svg">
<path opacity="0.5" fill-rule="evenodd" clip-rule="evenodd" d="M13.7832 0.640015H6.2168C3.14175 0.640015 0.640015 3.14175 0.640015 6.2168V13.7832C0.640015 16.8583 3.14175 19.36 6.2168 19.36H13.7832C16.8583 19.36 19.36 16.8583 19.36 13.7832V6.2168C19.36 3.14175 16.8582 0.640015 13.7832 0.640015ZM17.4768 13.7832C17.4768 15.8231 15.8231 17.4768 13.7832 17.4768H6.2168C4.17693 17.4768 2.52325 15.8231 2.52325 13.7832V6.2168C2.52325 4.17689 4.17693 2.52325 6.2168 2.52325H13.7832C15.8231 2.52325 17.4768 4.17689 17.4768 6.2168V13.7832ZM5.15836 9.99998C5.15836 7.33032 7.33032 5.15836 10 5.15836C12.6697 5.15836 14.8417 7.33029 14.8417 9.99998C14.8417 12.6697 12.6697 14.8416 10 14.8416C7.33032 14.8416 5.15836 12.6696 5.15836 9.99998ZM10 12.9584C8.36611 12.9584 7.04159 11.6339 7.04159 10C7.04159 8.36611 8.36614 7.04159 10 7.04159C11.6339 7.04159 12.9584 8.36611 12.9584 10C12.9584 11.6339 11.6339 12.9584 10 12.9584ZM14.851 6.35487C15.4918 6.35487 16.0112 5.83545 16.0112 5.19471C16.0112 4.55397 15.4918 4.03455 14.851 4.03455C14.2103 4.03455 13.6909 4.55397 13.6909 5.19471C13.6909 5.83545 14.2103 6.35487 14.851 6.35487Z" fill="#717171"/>
</svg>
