<svg width="16" height="14" viewBox="0 0 16 14" fill="none" xmlns="http://www.w3.org/2000/svg">
<path fill-rule="evenodd" clip-rule="evenodd" d="M7.7678 2.26902C8.38323 1.69831 9.56105 0.892914 11.3071 0.892914C13.7392 0.892914 15.4464 2.85882 15.4464 5.17017C15.4464 8.75271 11.534 11.4854 8.04192 13.1183C7.86988 13.1987 7.66573 13.1987 7.49369 13.1183C4.00342 11.4863 0.0892334 8.75085 0.0892334 5.17017C0.0892334 2.85472 1.80024 0.892914 4.22846 0.892914C5.97456 0.892914 7.15238 1.69831 7.7678 2.26902ZM1.36902 5.24213C1.36902 8.19284 4.86066 10.5631 7.76783 11.9501C10.6689 10.566 14.1666 8.191 14.1666 5.24213C14.1666 3.61793 13.0403 2.1215 11.2635 2.1215C9.28819 2.1215 8.27579 3.5074 8.26581 3.52142C8.15617 3.67498 7.96948 3.76935 7.76652 3.7687C7.56469 3.76782 7.37886 3.67642 7.27073 3.52262C6.78336 2.86729 5.67361 2.1215 4.27218 2.1215C2.49577 2.1215 1.36902 3.61731 1.36902 5.24213Z" fill="#19202C"/>
</svg>
