<svg width="18" height="18" viewBox="0 0 18 18" fill="none" xmlns="http://www.w3.org/2000/svg">
<path d="M17.8094 5.18488C17.9683 5.39158 18.0278 5.63961 17.9881 5.92898L17.2335 10.4349C17.207 10.6693 17.1044 10.8621 16.9257 11.0137C16.747 11.1653 16.5452 11.241 16.3201 11.241H5.31891L5.10048 12.5225H15.5854C15.8369 12.5225 16.0552 12.6156 16.2406 12.8016C16.426 12.9876 16.5186 13.2184 16.5186 13.494C16.5186 13.7696 16.426 14.0004 16.2406 14.1864C16.0552 14.3725 15.8369 14.4655 15.5854 14.4655H3.98845C3.71044 14.4655 3.47215 14.3483 3.27357 14.1142C3.08824 13.8799 3.01542 13.6111 3.05514 13.3081L3.55158 10.497L2.79699 2.60128L0.652361 1.89852C0.400831 1.81584 0.218802 1.65734 0.106275 1.42312C-0.00625149 1.18884 -0.0294188 0.940839 0.0367735 0.679027C0.116204 0.417215 0.271756 0.227746 0.503429 0.110619C0.735102 -0.00650703 0.970084 -0.0306213 1.20838 0.0382766L3.94874 0.947729C4.12084 1.00285 4.26315 1.10619 4.37568 1.25777C4.4882 1.40935 4.5577 1.58162 4.58418 1.77454L4.74304 3.34541L17.1739 4.79227C17.452 4.8335 17.6638 4.96441 17.8094 5.18488Z" fill="white"/>
<path d="M5.39838 15.0029C5.79553 15.0029 6.13311 15.1476 6.41112 15.437C6.68913 15.7263 6.82813 16.0777 6.82813 16.4911C6.82813 16.9044 6.68913 17.2593 6.41112 17.5556C6.13311 17.8519 5.79553 18 5.39838 18C5.00123 18 4.66365 17.8519 4.38564 17.5556C4.10763 17.2594 3.96863 16.9045 3.96863 16.4911C3.96863 16.0777 4.10763 15.7263 4.38564 15.437C4.66361 15.1476 5.00119 15.0029 5.39838 15.0029Z" fill="white"/>
<path d="M13.8776 15.0029C14.2747 15.0029 14.6123 15.1476 14.8903 15.437C15.1682 15.7263 15.3074 16.0777 15.3074 16.4911C15.3074 16.9044 15.1683 17.2593 14.8903 17.5556C14.6123 17.8519 14.2747 18 13.8776 18C13.4804 18 13.1428 17.8519 12.8649 17.5556C12.5869 17.2594 12.4478 16.9045 12.4478 16.4911C12.4478 16.0777 12.5868 15.7263 12.8649 15.437C13.1428 15.1476 13.4804 15.0029 13.8776 15.0029Z" fill="white"/>
</svg>
