<svg width="20" height="16" viewBox="0 0 20 16" fill="none" xmlns="http://www.w3.org/2000/svg">
<path fill-rule="evenodd" clip-rule="evenodd" d="M10 1.79214C10.8015 1.04889 12.3354 0 14.6094 0C17.7768 0 20 2.56025 20 5.57038C20 10.236 14.9048 13.7949 10.357 15.9214C10.1329 16.0262 9.86707 16.0262 9.64301 15.9214C5.09754 13.796 0 10.2336 0 5.57038C0 2.55491 2.22828 0 5.39062 0C7.66461 0 9.19852 1.04889 10 1.79214ZM1.66667 5.66407C1.66667 9.50687 6.21393 12.5937 10 14.4C13.7781 12.5975 18.3333 9.50446 18.3333 5.66407C18.3333 3.54883 16.8664 1.6 14.5525 1.6C11.98 1.6 10.6615 3.40489 10.6485 3.42315C10.5057 3.62313 10.2626 3.74603 9.9983 3.74519C9.73545 3.74405 9.49344 3.62501 9.35262 3.42471C8.7179 2.57126 7.27265 1.6 5.44753 1.6C3.13407 1.6 1.66667 3.54803 1.66667 5.66407Z" fill="#19202C"/>
</svg>
