<svg width="24" height="20" viewBox="0 0 24 20" fill="none" xmlns="http://www.w3.org/2000/svg">
<path fill-rule="evenodd" clip-rule="evenodd" d="M22.3636 11.6638H1.63636C0.732 11.6638 0 10.9184 0 9.99998C0 9.08153 0.732 8.33612 1.63636 8.33612H22.3636C23.2669 8.33612 24 9.08153 24 9.99998C24 10.9184 23.2669 11.6638 22.3636 11.6638V11.6638ZM22.3636 3.89914H1.63636C0.732 3.89914 0 3.15373 0 2.23528C0 1.31682 0.732 0.571411 1.63636 0.571411H22.3636C23.2669 0.571411 24 1.31682 24 2.23528C24 3.15373 23.2669 3.89914 22.3636 3.89914V3.89914ZM1.63636 16.1008H22.3636C23.2669 16.1008 24 16.8462 24 17.7647C24 18.6831 23.2669 19.4286 22.3636 19.4286H1.63636C0.732 19.4286 0 18.6831 0 17.7647C0 16.8462 0.732 16.1008 1.63636 16.1008V16.1008Z" fill="#19202C"/>
</svg>
