<svg width="17" height="17" viewBox="0 0 17 17" fill="none" xmlns="http://www.w3.org/2000/svg">
<path fill-rule="evenodd" clip-rule="evenodd" d="M11.1744 3.6746C9.10298 1.60316 5.74604 1.60316 3.6746 3.6746C1.60316 5.74604 1.60316 9.10298 3.6746 11.1744C5.74604 13.2459 9.10298 13.2459 11.1744 11.1744C13.2459 9.10298 13.2459 5.74604 11.1744 3.6746M16.6898 16.6898C16.2751 17.1034 15.6037 17.1034 15.189 16.6898L11.849 13.3487C8.9407 15.5231 4.81691 15.3173 2.17485 12.6742C-0.72495 9.77542 -0.72495 5.07465 2.17485 2.17485C5.07359 -0.72495 9.77542 -0.72495 12.6742 2.17485C15.3173 4.81691 15.5231 8.9407 13.3487 11.849L16.6898 15.19C17.1034 15.6037 17.1034 16.2751 16.6898 16.6898" fill="#19202C"/>
<mask id="mask0" mask-type="alpha" maskUnits="userSpaceOnUse" x="0" y="0" width="17" height="17">
<path fill-rule="evenodd" clip-rule="evenodd" d="M11.1744 3.6746C9.10298 1.60316 5.74604 1.60316 3.6746 3.6746C1.60316 5.74604 1.60316 9.10298 3.6746 11.1744C5.74604 13.2459 9.10298 13.2459 11.1744 11.1744C13.2459 9.10298 13.2459 5.74604 11.1744 3.6746M16.6898 16.6898C16.2751 17.1034 15.6037 17.1034 15.189 16.6898L11.849 13.3487C8.9407 15.5231 4.81691 15.3173 2.17485 12.6742C-0.72495 9.77542 -0.72495 5.07465 2.17485 2.17485C5.07359 -0.72495 9.77542 -0.72495 12.6742 2.17485C15.3173 4.81691 15.5231 8.9407 13.3487 11.849L16.6898 15.19C17.1034 15.6037 17.1034 16.2751 16.6898 16.6898" fill="white"/>
</mask>
<g mask="url(#mask0)">
</g>
</svg>
